<svg version="1.0" xmlns="http://www.w3.org/2000/svg" width="170.667" height="170.667" viewBox="0 0 128 128" fill="white">
    <path d="M17.2 1.2c-3.6 1.8-4.4 7.2-4 29.9.3 19.3.4 21 2.3 22.8 2.8 2.8 8.5 3.6 11 1.7 2-1.6 2-1.6.1-3.1-1.1-.8-3.3-1.5-4.8-1.5H19l.2-22.8.3-22.7h103v45l-9.7.5-9.7.5-4.6 4.5-4.5 4.4-4.5-4.4-4.6-4.5-10.4-.3c-9.7-.4-10.5-.5-12-2.8-1.9-2.9-8.9-6.6-11.7-6.2-1.6.2-2.8 2.3-5.5 9.7-4 11.3-6.1 14.3-11.8 17.7-3.5 2-4.8 2.3-6.4 1.5-1.1-.6-6.7-1.1-12.5-1.1C-.8 70 0 68.4 0 98.7v24.4l2.5 2.4c2.2 2.3 3.1 2.5 12.2 2.5 7.3 0 10.4-.4 12.1-1.5 1.9-1.4 2.7-1.4 7.4 0 3.9 1.1 10.1 1.5 25.6 1.5h20.4l3-3c2.4-2.4 2.9-3.7 2.7-6.8-.2-2.9.3-4.3 2.5-6.5s2.7-3.5 2.5-6.7c-.3-3.1.2-4.4 2.4-6.6 3.7-3.7 3.7-8.6-.1-12.3-2.1-2.2-2.7-3.8-2.7-6.9 0-2.9-.7-4.8-2.4-6.6-2.4-2.5-2.9-2.6-14.4-2.6-10.9 0-11.9-.2-11.4-1.7.3-1 1.1-3.9 1.8-6.6l1.3-4.7h18.2l4.4 4.5c2.4 2.5 5.1 4.5 6 4.5.9 0 3.6-2 6-4.5 4.4-4.5 4.4-4.5 11.5-4.5 9.3 0 13.9-1.4 15.3-4.6.8-1.6 1.2-10.1 1.2-25V4.9l-2.5-2.4-2.4-2.5-51.8.1C36.2.1 18.8.5 17.2 1.2zm41 50.2c2.3 2.8 2.2 6-.2 13.1-2.4 7-2.5 9.1-.4 9.9.9.3 7.1.6 13.9.6 13.1 0 15.3.8 14 4.9-.8 2.5-2.7 3-12 3.3-6.2.3-7 .5-7 2.3 0 1.9.8 2 11.4 2.5 9.4.4 11.6.8 12.5 2.2.8 1.3.8 2.3 0 3.5-.9 1.5-3.1 1.9-12.2 2.3-6.1.3-11.4.8-11.7 1.2-.4.4-.5 1.4-.2 2.3.5 1.2 2.3 1.5 8.2 1.5 8.8 0 11.5 1.1 11.5 4.5 0 3.5-2.7 4.5-11.9 4.5-7.4 0-8.1.2-8.1 2 0 2.2 1.8 2.8 8.9 3.2 5.1.3 7.3 2.6 5.5 5.5-1 1.6-3.3 1.8-20.9 2.1-16.1.2-20.8-.1-24.7-1.4l-4.8-1.6V77.2l5.5-3.1c6.9-3.9 10.6-9 14-19.2 2.5-7.5 2.8-7.8 4.8-6.8 1.2.6 3 2.1 3.9 3.3zM13 90.9c0 16.1.5 18.6 3.5 16.1 1.2-1 1.5-4.4 1.5-16.6V75h7l-.2 23.7-.3 23.8h-19L5.2 100c-.1-12.3 0-23 .2-23.7.3-.7 2.1-1.3 4.1-1.3H13v15.9z"/>
    <path d="M13.3 113.6c-.3.8-.1 2 .5 2.6 1.5 1.5 4.3-.8 3.5-2.8-.7-1.9-3.2-1.8-4 .2zM35.6 17.9c-1 1.8-2.6 3-4.5 3.4-4.6 1-5.6 3.9-2.6 7.5 1.5 1.8 2.3 3.7 1.9 4.6-.3.9-.3 2.8 0 4.2.6 2.4 1 2.6 4.4 2 4-.7 4.8-.7 10.2-.3 3.4.2 3.5.1 4-3.8.3-2.2 1.3-5.2 2.3-6.7 2.5-3.7 1.5-6.6-2.6-7.3-2.2-.4-3.8-1.6-4.9-3.6-2.3-3.9-6.2-4-8.2 0zm9.6 8.1c2 0 2 .1.5 1.8-1 1-1.7 2.7-1.7 3.8 0 1.6-.8 1.9-4.4 2-3.3.1-4.3-.2-3.9-1.3.3-.7-.2-2.4-1-3.7-1.5-2.3-1.5-2.4.8-3 1.3-.3 2.7-1.6 3.1-2.8.6-2.2.7-2.1 2.6.5 1.1 1.5 2.9 2.7 4 2.7zM67.7 17.7c-.8 1.4-2.9 3.1-4.7 3.7-4.8 1.6-6 4-3.3 6.8 1.4 1.5 2.3 3.9 2.5 6.8l.3 4.5 4-.2c2.2-.1 4.5-.2 5-.2.6 0 2.8.1 5 .2 4 .2 4 .2 4.5-3.8.3-2.2 1.4-5.3 2.4-6.9 2.4-3.5 1.4-5.6-3.4-7.2-1.8-.6-3.9-2.3-4.7-3.7-.9-1.8-2.2-2.7-3.8-2.7-1.6 0-2.9.9-3.8 2.7zm8.9 8.3c1.1 0 1.2.4.4 1.9-.5 1.1-1 2.8-1 3.8 0 1.5-.8 1.8-4.5 1.8-2.9 0-4.4-.4-4.1-1.1.2-.6-.2-2.3-.9-3.8-1.2-2.2-1.2-2.6 0-2.6.8 0 2.2-1.1 3.2-2.3l1.8-2.4 1.8 2.4c1 1.2 2.5 2.3 3.3 2.3zM99.2 17.9c-1.1 2-2.7 3.2-4.9 3.6-4.1.7-5.1 3.6-2.6 7.3 1 1.5 2 4.5 2.3 6.7.5 3.9.6 4 4 3.8 4.2-.3 5.3-.3 10.5 0l4 .2.1-4.3c0-3 .7-4.9 2.4-6.8 3-3.1 2-5.3-3-7-1.8-.6-3.9-2.3-4.7-3.7-1.9-3.8-5.9-3.6-8.1.2zm8.4 7.7c2.2.6 2.2.7.7 3-.8 1.3-1.3 3-1 3.6.3.9-.8 1.3-3.9 1.3-3.9 0-4.4-.3-4.4-2.2 0-1.2-.4-2.5-1-2.8-1.5-.9-1.2-2.5.5-2.5.8 0 2.2-1.1 3.2-2.4 1.7-2.4 1.8-2.4 2.7-.5.5 1.1 2 2.2 3.2 2.5zM34 54c0 1.3.7 2 2 2s2-.7 2-2-.7-2-2-2-2 .7-2 2z"/>
</svg>
